<mxfile host="app.diagrams.net" agent="Mozilla/5.0 (Macintosh; Intel Mac OS X 10_15_7) AppleWebKit/537.36 (KHTML, like Gecko) Chrome/126.0.0.0 Safari/537.36" version="24.7.6">
  <diagram name="Страница — 1" id="J8umEtTlhuDK4hY1K1tF">
    <mxGraphModel dx="1238" dy="846" grid="1" gridSize="10" guides="1" tooltips="1" connect="1" arrows="1" fold="1" page="1" pageScale="1" pageWidth="827" pageHeight="1169" math="0" shadow="0">
      <root>
        <mxCell id="0" />
        <mxCell id="1" parent="0" />
        <mxCell id="EB8dnHaQZYqRJyee5zHw-31" value="BD" style="shape=table;startSize=30;container=1;collapsible=1;childLayout=tableLayout;fixedRows=1;rowLines=0;fontStyle=1;align=center;resizeLast=1;html=1;" vertex="1" parent="1">
          <mxGeometry x="530" y="80" width="336" height="160" as="geometry">
            <mxRectangle x="530" y="80" width="60" height="30" as="alternateBounds" />
          </mxGeometry>
        </mxCell>
        <mxCell id="EB8dnHaQZYqRJyee5zHw-32" value="" style="shape=tableRow;horizontal=0;startSize=0;swimlaneHead=0;swimlaneBody=0;fillColor=none;collapsible=0;dropTarget=0;points=[[0,0.5],[1,0.5]];portConstraint=eastwest;top=0;left=0;right=0;bottom=1;" vertex="1" parent="EB8dnHaQZYqRJyee5zHw-31">
          <mxGeometry y="30" width="336" height="30" as="geometry" />
        </mxCell>
        <mxCell id="EB8dnHaQZYqRJyee5zHw-33" value="&lt;font style=&quot;font-size: 10px;&quot;&gt;User ID&lt;/font&gt;" style="shape=partialRectangle;connectable=0;fillColor=none;top=0;left=0;bottom=0;right=0;fontStyle=1;overflow=hidden;whiteSpace=wrap;html=1;" vertex="1" parent="EB8dnHaQZYqRJyee5zHw-32">
          <mxGeometry width="40" height="30" as="geometry">
            <mxRectangle width="40" height="30" as="alternateBounds" />
          </mxGeometry>
        </mxCell>
        <mxCell id="EB8dnHaQZYqRJyee5zHw-145" value="&lt;font style=&quot;font-size: 10px;&quot;&gt;Имя пользователя&lt;/font&gt;" style="shape=partialRectangle;connectable=0;fillColor=none;top=0;left=0;bottom=0;right=0;fontStyle=1;overflow=hidden;whiteSpace=wrap;html=1;" vertex="1" parent="EB8dnHaQZYqRJyee5zHw-32">
          <mxGeometry x="40" width="80" height="30" as="geometry">
            <mxRectangle width="80" height="30" as="alternateBounds" />
          </mxGeometry>
        </mxCell>
        <mxCell id="EB8dnHaQZYqRJyee5zHw-137" value="&lt;font style=&quot;font-size: 10px;&quot;&gt;Количество игр&lt;/font&gt;" style="shape=partialRectangle;connectable=0;fillColor=none;top=0;left=0;bottom=0;right=0;fontStyle=1;overflow=hidden;whiteSpace=wrap;html=1;" vertex="1" parent="EB8dnHaQZYqRJyee5zHw-32">
          <mxGeometry x="120" width="70" height="30" as="geometry">
            <mxRectangle width="70" height="30" as="alternateBounds" />
          </mxGeometry>
        </mxCell>
        <mxCell id="EB8dnHaQZYqRJyee5zHw-141" value="&lt;font style=&quot;font-size: 10px;&quot;&gt;Выйграно&lt;/font&gt;" style="shape=partialRectangle;connectable=0;fillColor=none;top=0;left=0;bottom=0;right=0;fontStyle=1;overflow=hidden;whiteSpace=wrap;html=1;" vertex="1" parent="EB8dnHaQZYqRJyee5zHw-32">
          <mxGeometry x="190" width="70" height="30" as="geometry">
            <mxRectangle width="70" height="30" as="alternateBounds" />
          </mxGeometry>
        </mxCell>
        <mxCell id="EB8dnHaQZYqRJyee5zHw-34" value="&lt;font style=&quot;font-size: 10px;&quot;&gt;Проиграно&lt;/font&gt;" style="shape=partialRectangle;connectable=0;fillColor=none;top=0;left=0;bottom=0;right=0;align=left;spacingLeft=6;fontStyle=5;overflow=hidden;whiteSpace=wrap;html=1;" vertex="1" parent="EB8dnHaQZYqRJyee5zHw-32">
          <mxGeometry x="260" width="76" height="30" as="geometry">
            <mxRectangle width="76" height="30" as="alternateBounds" />
          </mxGeometry>
        </mxCell>
        <mxCell id="EB8dnHaQZYqRJyee5zHw-35" value="" style="shape=tableRow;horizontal=0;startSize=0;swimlaneHead=0;swimlaneBody=0;fillColor=none;collapsible=0;dropTarget=0;points=[[0,0.5],[1,0.5]];portConstraint=eastwest;top=0;left=0;right=0;bottom=0;" vertex="1" parent="EB8dnHaQZYqRJyee5zHw-31">
          <mxGeometry y="60" width="336" height="40" as="geometry" />
        </mxCell>
        <mxCell id="EB8dnHaQZYqRJyee5zHw-36" value="" style="shape=partialRectangle;connectable=0;fillColor=none;top=0;left=0;bottom=0;right=0;editable=1;overflow=hidden;whiteSpace=wrap;html=1;" vertex="1" parent="EB8dnHaQZYqRJyee5zHw-35">
          <mxGeometry width="40" height="40" as="geometry">
            <mxRectangle width="40" height="40" as="alternateBounds" />
          </mxGeometry>
        </mxCell>
        <mxCell id="EB8dnHaQZYqRJyee5zHw-146" style="shape=partialRectangle;connectable=0;fillColor=none;top=0;left=0;bottom=0;right=0;editable=1;overflow=hidden;whiteSpace=wrap;html=1;" vertex="1" parent="EB8dnHaQZYqRJyee5zHw-35">
          <mxGeometry x="40" width="80" height="40" as="geometry">
            <mxRectangle width="80" height="40" as="alternateBounds" />
          </mxGeometry>
        </mxCell>
        <mxCell id="EB8dnHaQZYqRJyee5zHw-138" style="shape=partialRectangle;connectable=0;fillColor=none;top=0;left=0;bottom=0;right=0;editable=1;overflow=hidden;whiteSpace=wrap;html=1;" vertex="1" parent="EB8dnHaQZYqRJyee5zHw-35">
          <mxGeometry x="120" width="70" height="40" as="geometry">
            <mxRectangle width="70" height="40" as="alternateBounds" />
          </mxGeometry>
        </mxCell>
        <mxCell id="EB8dnHaQZYqRJyee5zHw-142" style="shape=partialRectangle;connectable=0;fillColor=none;top=0;left=0;bottom=0;right=0;editable=1;overflow=hidden;whiteSpace=wrap;html=1;" vertex="1" parent="EB8dnHaQZYqRJyee5zHw-35">
          <mxGeometry x="190" width="70" height="40" as="geometry">
            <mxRectangle width="70" height="40" as="alternateBounds" />
          </mxGeometry>
        </mxCell>
        <mxCell id="EB8dnHaQZYqRJyee5zHw-37" value="" style="shape=partialRectangle;connectable=0;fillColor=none;top=0;left=0;bottom=0;right=0;align=left;spacingLeft=6;overflow=hidden;whiteSpace=wrap;html=1;" vertex="1" parent="EB8dnHaQZYqRJyee5zHw-35">
          <mxGeometry x="260" width="76" height="40" as="geometry">
            <mxRectangle width="76" height="40" as="alternateBounds" />
          </mxGeometry>
        </mxCell>
        <mxCell id="EB8dnHaQZYqRJyee5zHw-38" value="" style="shape=tableRow;horizontal=0;startSize=0;swimlaneHead=0;swimlaneBody=0;fillColor=none;collapsible=0;dropTarget=0;points=[[0,0.5],[1,0.5]];portConstraint=eastwest;top=0;left=0;right=0;bottom=0;" vertex="1" parent="EB8dnHaQZYqRJyee5zHw-31">
          <mxGeometry y="100" width="336" height="30" as="geometry" />
        </mxCell>
        <mxCell id="EB8dnHaQZYqRJyee5zHw-39" value="" style="shape=partialRectangle;connectable=0;fillColor=none;top=0;left=0;bottom=0;right=0;editable=1;overflow=hidden;whiteSpace=wrap;html=1;" vertex="1" parent="EB8dnHaQZYqRJyee5zHw-38">
          <mxGeometry width="40" height="30" as="geometry">
            <mxRectangle width="40" height="30" as="alternateBounds" />
          </mxGeometry>
        </mxCell>
        <mxCell id="EB8dnHaQZYqRJyee5zHw-147" style="shape=partialRectangle;connectable=0;fillColor=none;top=0;left=0;bottom=0;right=0;editable=1;overflow=hidden;whiteSpace=wrap;html=1;" vertex="1" parent="EB8dnHaQZYqRJyee5zHw-38">
          <mxGeometry x="40" width="80" height="30" as="geometry">
            <mxRectangle width="80" height="30" as="alternateBounds" />
          </mxGeometry>
        </mxCell>
        <mxCell id="EB8dnHaQZYqRJyee5zHw-139" style="shape=partialRectangle;connectable=0;fillColor=none;top=0;left=0;bottom=0;right=0;editable=1;overflow=hidden;whiteSpace=wrap;html=1;" vertex="1" parent="EB8dnHaQZYqRJyee5zHw-38">
          <mxGeometry x="120" width="70" height="30" as="geometry">
            <mxRectangle width="70" height="30" as="alternateBounds" />
          </mxGeometry>
        </mxCell>
        <mxCell id="EB8dnHaQZYqRJyee5zHw-143" style="shape=partialRectangle;connectable=0;fillColor=none;top=0;left=0;bottom=0;right=0;editable=1;overflow=hidden;whiteSpace=wrap;html=1;" vertex="1" parent="EB8dnHaQZYqRJyee5zHw-38">
          <mxGeometry x="190" width="70" height="30" as="geometry">
            <mxRectangle width="70" height="30" as="alternateBounds" />
          </mxGeometry>
        </mxCell>
        <mxCell id="EB8dnHaQZYqRJyee5zHw-40" value="" style="shape=partialRectangle;connectable=0;fillColor=none;top=0;left=0;bottom=0;right=0;align=left;spacingLeft=6;overflow=hidden;whiteSpace=wrap;html=1;" vertex="1" parent="EB8dnHaQZYqRJyee5zHw-38">
          <mxGeometry x="260" width="76" height="30" as="geometry">
            <mxRectangle width="76" height="30" as="alternateBounds" />
          </mxGeometry>
        </mxCell>
        <mxCell id="EB8dnHaQZYqRJyee5zHw-41" value="" style="shape=tableRow;horizontal=0;startSize=0;swimlaneHead=0;swimlaneBody=0;fillColor=none;collapsible=0;dropTarget=0;points=[[0,0.5],[1,0.5]];portConstraint=eastwest;top=0;left=0;right=0;bottom=0;" vertex="1" parent="EB8dnHaQZYqRJyee5zHw-31">
          <mxGeometry y="130" width="336" height="30" as="geometry" />
        </mxCell>
        <mxCell id="EB8dnHaQZYqRJyee5zHw-42" value="" style="shape=partialRectangle;connectable=0;fillColor=none;top=0;left=0;bottom=0;right=0;editable=1;overflow=hidden;whiteSpace=wrap;html=1;" vertex="1" parent="EB8dnHaQZYqRJyee5zHw-41">
          <mxGeometry width="40" height="30" as="geometry">
            <mxRectangle width="40" height="30" as="alternateBounds" />
          </mxGeometry>
        </mxCell>
        <mxCell id="EB8dnHaQZYqRJyee5zHw-148" style="shape=partialRectangle;connectable=0;fillColor=none;top=0;left=0;bottom=0;right=0;editable=1;overflow=hidden;whiteSpace=wrap;html=1;" vertex="1" parent="EB8dnHaQZYqRJyee5zHw-41">
          <mxGeometry x="40" width="80" height="30" as="geometry">
            <mxRectangle width="80" height="30" as="alternateBounds" />
          </mxGeometry>
        </mxCell>
        <mxCell id="EB8dnHaQZYqRJyee5zHw-140" style="shape=partialRectangle;connectable=0;fillColor=none;top=0;left=0;bottom=0;right=0;editable=1;overflow=hidden;whiteSpace=wrap;html=1;" vertex="1" parent="EB8dnHaQZYqRJyee5zHw-41">
          <mxGeometry x="120" width="70" height="30" as="geometry">
            <mxRectangle width="70" height="30" as="alternateBounds" />
          </mxGeometry>
        </mxCell>
        <mxCell id="EB8dnHaQZYqRJyee5zHw-144" style="shape=partialRectangle;connectable=0;fillColor=none;top=0;left=0;bottom=0;right=0;editable=1;overflow=hidden;whiteSpace=wrap;html=1;" vertex="1" parent="EB8dnHaQZYqRJyee5zHw-41">
          <mxGeometry x="190" width="70" height="30" as="geometry">
            <mxRectangle width="70" height="30" as="alternateBounds" />
          </mxGeometry>
        </mxCell>
        <mxCell id="EB8dnHaQZYqRJyee5zHw-43" value="" style="shape=partialRectangle;connectable=0;fillColor=none;top=0;left=0;bottom=0;right=0;align=left;spacingLeft=6;overflow=hidden;whiteSpace=wrap;html=1;" vertex="1" parent="EB8dnHaQZYqRJyee5zHw-41">
          <mxGeometry x="260" width="76" height="30" as="geometry">
            <mxRectangle width="76" height="30" as="alternateBounds" />
          </mxGeometry>
        </mxCell>
        <mxCell id="EB8dnHaQZYqRJyee5zHw-149" value="START" style="ellipse;whiteSpace=wrap;html=1;align=center;fontStyle=4;" vertex="1" parent="1">
          <mxGeometry x="50" y="40" width="100" height="40" as="geometry" />
        </mxCell>
        <mxCell id="EB8dnHaQZYqRJyee5zHw-150" value="" style="endArrow=classic;html=1;rounded=0;entryX=0;entryY=0.5;entryDx=0;entryDy=0;" edge="1" parent="1" target="EB8dnHaQZYqRJyee5zHw-35">
          <mxGeometry relative="1" as="geometry">
            <mxPoint x="150" y="59.37" as="sourcePoint" />
            <mxPoint x="250" y="59.37" as="targetPoint" />
          </mxGeometry>
        </mxCell>
        <mxCell id="EB8dnHaQZYqRJyee5zHw-151" value="&lt;font style=&quot;font-size: 7px;&quot;&gt;Post запрос в базу, добавление юзера, значение во всех полях 0&lt;/font&gt;" style="edgeLabel;resizable=0;html=1;;align=center;verticalAlign=middle;" connectable="0" vertex="1" parent="EB8dnHaQZYqRJyee5zHw-150">
          <mxGeometry relative="1" as="geometry" />
        </mxCell>
        <mxCell id="EB8dnHaQZYqRJyee5zHw-152" value="Начать голосование" style="ellipse;whiteSpace=wrap;html=1;align=center;" vertex="1" parent="1">
          <mxGeometry x="60" y="380" width="100" height="40" as="geometry" />
        </mxCell>
        <mxCell id="EB8dnHaQZYqRJyee5zHw-155" style="edgeStyle=orthogonalEdgeStyle;rounded=0;orthogonalLoop=1;jettySize=auto;html=1;exitX=0.5;exitY=0;exitDx=0;exitDy=0;entryX=0.5;entryY=1;entryDx=0;entryDy=0;" edge="1" parent="1" source="EB8dnHaQZYqRJyee5zHw-153" target="EB8dnHaQZYqRJyee5zHw-152">
          <mxGeometry relative="1" as="geometry" />
        </mxCell>
        <mxCell id="EB8dnHaQZYqRJyee5zHw-153" value="Доступна для нажатия у админа, либо можно передать права пользователю" style="text;html=1;align=center;verticalAlign=middle;whiteSpace=wrap;rounded=0;strokeColor=default;" vertex="1" parent="1">
          <mxGeometry x="50" y="440" width="120" height="140" as="geometry" />
        </mxCell>
        <mxCell id="EB8dnHaQZYqRJyee5zHw-156" value="Модал для голосования" style="swimlane;childLayout=stackLayout;horizontal=1;startSize=50;horizontalStack=0;rounded=1;fontSize=14;fontStyle=0;strokeWidth=2;resizeParent=0;resizeLast=1;shadow=0;dashed=0;align=center;arcSize=4;whiteSpace=wrap;html=1;" vertex="1" parent="1">
          <mxGeometry x="30" y="220" width="160" height="120" as="geometry">
            <mxRectangle x="30" y="220" width="200" height="50" as="alternateBounds" />
          </mxGeometry>
        </mxCell>
        <mxCell id="EB8dnHaQZYqRJyee5zHw-157" value="1. Да&lt;br&gt;2. Нет&lt;br&gt;3. Не знаю" style="align=left;strokeColor=none;fillColor=none;spacingLeft=4;fontSize=12;verticalAlign=top;resizable=0;rotatable=0;part=1;html=1;" vertex="1" parent="EB8dnHaQZYqRJyee5zHw-156">
          <mxGeometry y="50" width="160" height="70" as="geometry" />
        </mxCell>
        <mxCell id="EB8dnHaQZYqRJyee5zHw-159" value="&lt;font style=&quot;font-size: 8px;&quot;&gt;1. Можно выбрать только один вариант&lt;/font&gt;&lt;div&gt;&lt;font style=&quot;font-size: 8px;&quot;&gt;2. Можно изменить вариант&lt;/font&gt;&lt;/div&gt;&lt;div&gt;&lt;font style=&quot;font-size: 8px;&quot;&gt;3. Всплывающие уведомление при нажатие&lt;/font&gt;&lt;/div&gt;" style="text;html=1;align=center;verticalAlign=middle;whiteSpace=wrap;rounded=0;strokeColor=default;" vertex="1" parent="1">
          <mxGeometry x="210" y="220" width="90" height="120" as="geometry" />
        </mxCell>
        <mxCell id="EB8dnHaQZYqRJyee5zHw-160" style="edgeStyle=orthogonalEdgeStyle;rounded=0;orthogonalLoop=1;jettySize=auto;html=1;entryX=1;entryY=0.143;entryDx=0;entryDy=0;entryPerimeter=0;" edge="1" parent="1" source="EB8dnHaQZYqRJyee5zHw-159" target="EB8dnHaQZYqRJyee5zHw-157">
          <mxGeometry relative="1" as="geometry" />
        </mxCell>
        <mxCell id="EB8dnHaQZYqRJyee5zHw-161" value="" style="endArrow=classic;html=1;rounded=0;entryX=0.438;entryY=1;entryDx=0;entryDy=0;entryPerimeter=0;exitX=0.401;exitY=0;exitDx=0;exitDy=0;exitPerimeter=0;" edge="1" parent="1" source="EB8dnHaQZYqRJyee5zHw-152" target="EB8dnHaQZYqRJyee5zHw-157">
          <mxGeometry relative="1" as="geometry">
            <mxPoint x="100" y="370" as="sourcePoint" />
            <mxPoint x="200" y="370" as="targetPoint" />
          </mxGeometry>
        </mxCell>
        <mxCell id="EB8dnHaQZYqRJyee5zHw-162" value="Нажатие на кнопку открывает" style="edgeLabel;resizable=0;html=1;;align=center;verticalAlign=middle;" connectable="0" vertex="1" parent="EB8dnHaQZYqRJyee5zHw-161">
          <mxGeometry relative="1" as="geometry" />
        </mxCell>
      </root>
    </mxGraphModel>
  </diagram>
</mxfile>
